# xmcd
#
# Track frame offsets: 
#        150
#        14920
#        29757
#        44142
#        59625
#        75095
#        90817
#        117527
#        133090
#        154675
#        175200
#        193885
#        209607
#
# Disc length: 2968 seconds
#
# Revision: 1
# Processed by: cddbd v1.5.2PL0 Copyright (c) Steve Scherf et al.
# Submitted via: ExactAudioCopy v1.0b3
#
DISCID=be0b960d
DTITLE=Don Nix - Going Down - The Songs Of Don Nix
DYEAR=2002
DGENRE=Blues
TTITLE0=Black Cat Moan
TTITLE1=On The Road Again
TTITLE2=Right Where You Want Me (w Bonnie Bramlett)
TTITLE3=Same Old Blues (w Bonnie Bramlett and Steve Cropper)
TTITLE4=Lucinda
TTITLE5=Palace Of The King (w Audley Freed and Dan Penn)
TTITLE6=Going Down (w Leslie West and Brian May)
TTITLE7=Going Back To Luka (w Tony Joe White and John Mayall)
TTITLE8=Like A Road Leading Home (w Bonnie Bramlett and Steve Cropper)
TTITLE9=One More Repossession
TTITLE10=Living On The Highway (w Leslie West)
TTITLE11=Plastic Flowers
TTITLE12=Everybody Wants To Go To Heaven (w Tony Joe White and Bobby Whi
TTITLE12=tlock)
EXTD=
EXTT0=
EXTT1=
EXTT2=
EXTT3=
EXTT4=
EXTT5=
EXTT6=
EXTT7=
EXTT8=
EXTT9=
EXTT10=
EXTT11=
EXTT12=
PLAYORDER=
